<?xml version="1.0" encoding="UTF-8" standalone="no"?>
<svg
   xmlns:dc="http://purl.org/dc/elements/1.1/"
   xmlns:cc="http://creativecommons.org/ns#"
   xmlns:rdf="http://www.w3.org/1999/02/22-rdf-syntax-ns#"
   xmlns:svg="http://www.w3.org/2000/svg"
   xmlns="http://www.w3.org/2000/svg"
   xmlns:sodipodi="http://sodipodi.sourceforge.net/DTD/sodipodi-0.dtd"
   xmlns:inkscape="http://www.inkscape.org/namespaces/inkscape"
   id="svg8"
   version="1.1"
   viewBox="0 0 24.000001 24.000001"
   height="24mm"
   width="24mm"
   sodipodi:docname="CenterMark.svg"
   inkscape:version="1.0 (4035a4fb49, 2020-05-01)">
  <sodipodi:namedview
     units="mm"
     inkscape:document-rotation="0"
     pagecolor="#ffffff"
     bordercolor="#666666"
     borderopacity="1"
     objecttolerance="10"
     gridtolerance="10"
     guidetolerance="10"
     inkscape:pageopacity="0"
     inkscape:pageshadow="2"
     inkscape:window-width="2560"
     inkscape:window-height="1377"
     id="namedview1449"
     showgrid="false"
     inkscape:zoom="5.5684659"
     inkscape:cx="101.78584"
     inkscape:cy="52.865343"
     inkscape:window-x="1912"
     inkscape:window-y="-8"
     inkscape:window-maximized="1"
     inkscape:current-layer="svg8" />
  <defs
     id="defs2" />
  <metadata
     id="metadata5">
    <rdf:RDF>
      <cc:Work
         rdf:about="">
        <dc:format>image/svg+xml</dc:format>
        <dc:type
           rdf:resource="http://purl.org/dc/dcmitype/StillImage" />
        <dc:title></dc:title>
      </cc:Work>
    </rdf:RDF>
  </metadata>
  <path
     d="M 0.57228409,0 A 0.5723232,0.5722195 0 0 0 0,0.57218039 V 23.427819 A 0.5723232,0.5722195 0 0 0 0.57228409,24 H 23.427762 A 0.5723232,0.5722195 0 0 0 24,23.427819 V 0.57218039 A 0.5723232,0.5722195 0 0 0 23.427762,0 Z M 1.1445224,1.144315 H 22.855478 v 21.71137 H 1.1445224 Z m 7.9527028,8.6263643 -1.058975,0.213532 v 0.5456837 l 1.0648794,-0.213532 v 3.378028 H 8.1242552 v 0.504177 H 10.675297 V 13.694391 H 9.696423 V 9.7706793 Z m 5.4953558,0 c -0.174023,0 -0.365825,0.024708 -0.575443,0.074137 -0.209618,0.049429 -0.435064,0.1226002 -0.676323,0.2194817 v 0.604992 c 0.237304,-0.13247 0.459757,-0.2313 0.667398,-0.296547 0.209618,-0.06525 0.408403,-0.09789 0.596268,-0.09789 0.264989,0 0.479507,0.07417 0.643642,0.222456 0.166113,0.148288 0.249182,0.340055 0.249182,0.575338 0,0.144334 -0.03854,0.291627 -0.115665,0.441892 -0.07515,0.148288 -0.208637,0.330172 -0.400457,0.545684 -0.100854,0.114676 -0.348066,0.370728 -0.741594,0.768139 -0.391552,0.395434 -0.701019,0.710785 -0.928434,0.946068 v 0.504176 h 2.812033 V 13.77443 h -2.09122 c 0.482517,-0.492316 0.856282,-0.874898 1.121271,-1.147748 0.264988,-0.274826 0.422193,-0.440888 0.471632,-0.498226 0.179954,-0.221443 0.30356,-0.413211 0.370796,-0.575338 0.06921,-0.164106 0.103811,-0.337149 0.103811,-0.519049 0,-0.383572 -0.136438,-0.68999 -0.409337,-0.919342 -0.272899,-0.2293524 -0.638774,-0.3440496 -1.09756,-0.3440496 z"
     style="font-style:normal;font-weight:normal;font-size:68.5867px;line-height:1.25;font-family:sans-serif;letter-spacing:0px;word-spacing:0px;fill:#000000;fill-opacity:1;stroke:none;stroke-width:0.151861"
     id="path2012" />
</svg>
