<?xml version="1.0" encoding="UTF-8" standalone="no"?>
<svg
   xmlns:dc="http://purl.org/dc/elements/1.1/"
   xmlns:cc="http://creativecommons.org/ns#"
   xmlns:rdf="http://www.w3.org/1999/02/22-rdf-syntax-ns#"
   xmlns:svg="http://www.w3.org/2000/svg"
   xmlns="http://www.w3.org/2000/svg"
   xmlns:sodipodi="http://sodipodi.sourceforge.net/DTD/sodipodi-0.dtd"
   xmlns:inkscape="http://www.inkscape.org/namespaces/inkscape"
   id="svg8"
   version="1.1"
   viewBox="0 0 24 24"
   height="24mm"
   width="24mm"
   sodipodi:docname="CenterMark.svg"
   inkscape:version="1.0.1 (3bc2e813f5, 2020-09-07)">
  <g
     aria-label="123"
     id="text900"
     style="font-size:3.52777px;line-height:1.25;font-family:sans-serif;letter-spacing:0.772583px;word-spacing:0px;stroke-width:0.264583" />
  <sodipodi:namedview
     units="mm"
     inkscape:document-rotation="0"
     pagecolor="#ffffff"
     bordercolor="#666666"
     borderopacity="1"
     objecttolerance="10"
     gridtolerance="10"
     guidetolerance="10"
     inkscape:pageopacity="0"
     inkscape:pageshadow="2"
     inkscape:window-width="1680"
     inkscape:window-height="987"
     id="namedview866"
     showgrid="false"
     inkscape:zoom="3.9375"
     inkscape:cx="20.851393"
     inkscape:cy="48.272231"
     inkscape:window-x="-8"
     inkscape:window-y="-8"
     inkscape:window-maximized="1"
     inkscape:current-layer="svg8"
     showguides="true"
     inkscape:guide-bbox="true">
    <sodipodi:guide
       position="34.605819,9.6873013"
       orientation="0,-1"
       id="guide838" />
    <sodipodi:guide
       position="6.3164019,17.549206"
       orientation="1,0"
       id="guide858" />
  </sodipodi:namedview>
  <defs
     id="defs2" />
  <metadata
     id="metadata5">
    <rdf:RDF>
      <cc:Work
         rdf:about="">
        <dc:format>image/svg+xml</dc:format>
        <dc:type
           rdf:resource="http://purl.org/dc/dcmitype/StillImage" />
        <dc:title></dc:title>
      </cc:Work>
    </rdf:RDF>
  </metadata>
  <g
     aria-label="1"
     id="text832"
     style="font-style:normal;font-variant:normal;font-weight:normal;font-stretch:normal;font-size:6.35px;line-height:1.25;font-family:Arial;-inkscape-font-specification:Arial;stroke-width:0.264583" />
  <g
     aria-label="2"
     id="text832-2"
     style="font-style:normal;font-variant:normal;font-weight:normal;font-stretch:normal;font-size:3.52777px;line-height:1.25;font-family:Arial;-inkscape-font-specification:Arial;stroke-width:0.264583" />
  <g
     aria-label="3"
     id="text832-2-1"
     style="font-style:normal;font-variant:normal;font-weight:normal;font-stretch:normal;font-size:3.52777px;line-height:1.25;font-family:Arial;-inkscape-font-specification:Arial;stroke-width:0.264583">
    <path
       id="path894"
       style="font-style:normal;font-variant:normal;font-weight:normal;font-stretch:normal;font-size:6.35px;font-family:Arial;-inkscape-font-specification:Arial;stroke-width:0.264583"
       d="M 0.57229047,0 C 0.25622155,1.8027832e-5 5.1750684e-6,0.25619812 0,0.57220944 V 23.42779 c 5.4181024e-6,0.316011 0.25622172,0.572191 0.57229047,0.572209 H 23.427747 c 0.316054,-3.9e-5 0.572247,-0.256213 0.572252,-0.572209 V 0.57220944 C 23.999994,0.25621314 23.743801,3.9267385e-5 23.427747,0 Z M 1.1445054,1.1443433 H 22.855456 V 22.855656 H 1.1445054 Z m 13.4589736,11.8974527 0.558106,-0.07441 q 0.09612,0.47439 0.325561,0.68523 0.232544,0.207739 0.564307,0.207739 0.393774,0 0.663525,-0.272852 0.272852,-0.272851 0.272852,-0.675927 0,-0.384473 -0.251148,-0.63252 -0.251147,-0.251147 -0.638721,-0.251147 -0.158129,0 -0.393774,0.06201 l 0.06201,-0.489892 q 0.05581,0.0062 0.08992,0.0062 0.356567,0 0.641821,-0.186035 0.285254,-0.186035 0.285254,-0.573608 0,-0.306958 -0.207739,-0.508497 -0.20774,-0.201538 -0.536402,-0.201538 -0.325561,0 -0.542602,0.204639 -0.217041,0.204639 -0.279053,0.613916 l -0.558105,-0.09922 q 0.102319,-0.561206 0.465088,-0.8681638 0.362768,-0.3100586 0.90227,-0.3100586 0.37207,0 0.68523,0.1612305 0.313159,0.1581299 0.47749,0.4340819 0.167431,0.275952 0.167431,0.586011 0,0.294556 -0.15813,0.536401 -0.158129,0.241846 -0.468188,0.384473 0.403076,0.09302 0.626318,0.387573 0.223243,0.291455 0.223243,0.731738 0,0.595313 -0.434082,1.010791 -0.434082,0.412378 -1.097608,0.412378 -0.598413,0 -0.995288,-0.356567 -0.393774,-0.356567 -0.449585,-0.923975 z m -1.374097,0.663526 v 0.536401 h -3.004468 q -0.0062,-0.201538 0.06511,-0.387573 0.114721,-0.306958 0.365869,-0.604614 0.254248,-0.297657 0.731738,-0.68833 0.74104,-0.607715 1.001489,-0.961182 0.26045,-0.356567 0.26045,-0.672827 0,-0.331763 -0.238745,-0.558106 -0.235645,-0.229443 -0.617017,-0.229443 -0.403076,0 -0.644922,0.241846 -0.241846,0.241845 -0.244946,0.669726 l -0.573609,-0.05891 q 0.05891,-0.641821 0.443384,-0.976685 0.384473,-0.3379634 1.032495,-0.3379634 0.654224,0 1.035596,0.3627684 0.381372,0.362769 0.381372,0.89917 0,0.272852 -0.111621,0.536401 -0.111621,0.26355 -0.37207,0.555005 -0.257349,0.291455 -0.858863,0.799951 -0.502295,0.42168 -0.644922,0.573609 -0.142626,0.148828 -0.235644,0.300757 z M 8.0942746,14.241723 H 7.5361691 V 10.685351 Q 7.334631,10.877587 7.0059689,11.069824 6.6804074,11.26206 6.4199582,11.358178 V 10.818676 Q 6.8881467,10.598535 7.2385129,10.285375 7.5888791,9.9722163 7.7346066,9.6776606 h 0.359668 z" />
  </g>
</svg>
