<?xml version="1.0" encoding="UTF-8" standalone="no"?>
<svg
   xmlns:dc="http://purl.org/dc/elements/1.1/"
   xmlns:cc="http://creativecommons.org/ns#"
   xmlns:rdf="http://www.w3.org/1999/02/22-rdf-syntax-ns#"
   xmlns:svg="http://www.w3.org/2000/svg"
   xmlns="http://www.w3.org/2000/svg"
   xmlns:sodipodi="http://sodipodi.sourceforge.net/DTD/sodipodi-0.dtd"
   xmlns:inkscape="http://www.inkscape.org/namespaces/inkscape"
   id="svg8"
   version="1.1"
   viewBox="0 0 24 24"
   height="24mm"
   width="24mm"
   sodipodi:docname="CornerMark.svg"
   inkscape:version="1.0.1 (3bc2e813f5, 2020-09-07)">
  <sodipodi:namedview
     units="mm"
     inkscape:document-rotation="0"
     pagecolor="#ffffff"
     bordercolor="#666666"
     borderopacity="1"
     objecttolerance="10"
     gridtolerance="10"
     guidetolerance="10"
     inkscape:pageopacity="0"
     inkscape:pageshadow="2"
     inkscape:window-width="1680"
     inkscape:window-height="987"
     id="namedview866"
     showgrid="false"
     inkscape:zoom="3.9375"
     inkscape:cx="20.851393"
     inkscape:cy="48.272231"
     inkscape:window-x="-8"
     inkscape:window-y="-8"
     inkscape:window-maximized="1"
     inkscape:current-layer="svg8"
     showguides="true"
     inkscape:guide-bbox="true">
    <sodipodi:guide
       position="-13.439153,16.608465"
       orientation="0,-1"
       id="guide838" />
    <sodipodi:guide
       position="5.5100528,17.885185"
       orientation="1,0"
       id="guide858" />
  </sodipodi:namedview>
  <defs
     id="defs2" />
  <metadata
     id="metadata5">
    <rdf:RDF>
      <cc:Work
         rdf:about="">
        <dc:format>image/svg+xml</dc:format>
        <dc:type
           rdf:resource="http://purl.org/dc/dcmitype/StillImage" />
        <dc:title></dc:title>
      </cc:Work>
    </rdf:RDF>
  </metadata>
  <g
     aria-label="1"
     id="text832"
     style="font-style:normal;font-variant:normal;font-weight:normal;font-stretch:normal;font-size:6.35px;line-height:1.25;font-family:Arial;-inkscape-font-specification:Arial;stroke-width:0.264583" />
  <g
     aria-label="2"
     id="text832-2"
     style="font-style:normal;font-variant:normal;font-weight:normal;font-stretch:normal;font-size:3.52777px;line-height:1.25;font-family:Arial;-inkscape-font-specification:Arial;stroke-width:0.264583" />
  <g
     aria-label="3"
     id="text832-2-1"
     style="font-style:normal;font-variant:normal;font-weight:normal;font-stretch:normal;font-size:3.52777px;line-height:1.25;font-family:Arial;-inkscape-font-specification:Arial;stroke-width:0.264583">
    <path
       id="path894"
       style="font-style:normal;font-variant:normal;font-weight:normal;font-stretch:normal;font-size:6.35px;font-family:Arial;-inkscape-font-specification:Arial;stroke-width:0.264583"
       d="m 3.5987718,19.105793 0.5581054,-0.07441 q 0.096118,0.474389 0.3255615,0.685229 0.232544,0.207739 0.5643067,0.207739 0.3937744,0 0.6635254,-0.272851 0.2728515,-0.272852 0.2728515,-0.675928 0,-0.384473 -0.2511474,-0.632519 -0.2511475,-0.251148 -0.6387207,-0.251148 -0.1581299,0 -0.3937744,0.06201 l 0.062012,-0.489893 q 0.05581,0.0062 0.089917,0.0062 0.3565673,0 0.6418212,-0.186035 0.2852539,-0.186035 0.2852539,-0.573608 0,-0.306958 -0.2077392,-0.508496 -0.2077393,-0.201538 -0.5364014,-0.201538 -0.3255615,0 -0.5426025,0.204638 -0.217041,0.204639 -0.2790527,0.613916 L 3.6545823,16.91988 q 0.1023193,-0.561206 0.4650879,-0.868164 0.3627685,-0.310059 0.9022705,-0.310059 0.3720703,0 0.6852295,0.16123 0.3131591,0.15813 0.4774902,0.434082 0.1674316,0.275953 0.1674316,0.586011 0,0.294556 -0.1581299,0.536402 -0.1581298,0.241845 -0.4681884,0.384472 0.4030761,0.09302 0.6263183,0.387573 0.2232422,0.291455 0.2232422,0.731739 0,0.595312 -0.434082,1.010791 -0.434082,0.412378 -1.0976074,0.412378 -0.5984131,0 -0.9952881,-0.356568 Q 3.6545823,19.6732 3.5987718,19.105793 Z M 20.048013,6.867731 v 0.5364014 h -3.004468 q -0.0062,-0.2015381 0.06511,-0.3875733 0.114722,-0.306958 0.36587,-0.6046142 0.254248,-0.2976563 0.731738,-0.6883301 0.74104,-0.6077148 1.001489,-0.9611816 0.260449,-0.3565674 0.260449,-0.6728272 0,-0.3317626 -0.238745,-0.5581054 -0.235644,-0.2294434 -0.617016,-0.2294434 -0.403077,0 -0.644922,0.2418457 -0.241846,0.2418457 -0.244947,0.6697266 L 17.148963,4.1547185 Q 17.207873,3.5128972 17.592347,3.1780339 17.97682,2.84007 18.624842,2.84007 q 0.654224,0 1.035596,0.3627686 0.381372,0.3627685 0.381372,0.8991699 0,0.2728516 -0.111621,0.5364014 Q 19.81857,4.9019596 19.55812,5.1934146 19.300772,5.4848697 18.699258,5.9933658 18.196963,6.4150455 18.054336,6.5669742 17.911709,6.7158023 17.818692,6.867731 Z M 5.483156,7.4532661 H 4.9250506 V 3.8968941 Q 4.7235125,4.0891305 4.3948504,4.2813668 4.0692889,4.4736031 3.8088396,4.5697213 V 4.0302193 Q 4.2770281,3.8100777 4.6273943,3.4969185 4.9777605,3.1837594 5.1234881,2.8892037 H 5.483156 Z M 0.57229047,0 C 0.25622155,1.8027832e-5 5.1750684e-6,0.25619812 0,0.57220944 V 23.42779 c 5.4181024e-6,0.316011 0.25622172,0.572191 0.57229047,0.572209 H 23.427747 c 0.316054,-3.9e-5 0.572247,-0.256213 0.572252,-0.572209 V 0.57220944 C 23.999994,0.25621314 23.743801,3.9267385e-5 23.427747,0 Z M 1.1445054,1.1443433 H 22.855456 V 22.855656 H 1.1445054 Z" />
  </g>
</svg>
