<?xml version="1.0" encoding="UTF-8" standalone="no"?>
<svg
   xmlns:dc="http://purl.org/dc/elements/1.1/"
   xmlns:cc="http://creativecommons.org/ns#"
   xmlns:rdf="http://www.w3.org/1999/02/22-rdf-syntax-ns#"
   xmlns:svg="http://www.w3.org/2000/svg"
   xmlns="http://www.w3.org/2000/svg"
   xmlns:sodipodi="http://sodipodi.sourceforge.net/DTD/sodipodi-0.dtd"
   xmlns:inkscape="http://www.inkscape.org/namespaces/inkscape"
   id="svg8"
   version="1.1"
   viewBox="0 0 24.000001 24.000001"
   height="24mm"
   width="24mm"
   sodipodi:docname="CornerMark.svg"
   inkscape:version="1.0 (4035a4fb49, 2020-05-01)">
  <sodipodi:namedview
     units="mm"
     inkscape:document-rotation="0"
     pagecolor="#ffffff"
     bordercolor="#666666"
     borderopacity="1"
     objecttolerance="10"
     gridtolerance="10"
     guidetolerance="10"
     inkscape:pageopacity="0"
     inkscape:pageshadow="2"
     inkscape:window-width="2560"
     inkscape:window-height="1377"
     id="namedview13"
     showgrid="false"
     inkscape:zoom="7.875"
     inkscape:cx="69.988428"
     inkscape:cy="45.044389"
     inkscape:window-x="1912"
     inkscape:window-y="-8"
     inkscape:window-maximized="1"
     inkscape:current-layer="svg8" />
  <defs
     id="defs2" />
  <metadata
     id="metadata5">
    <rdf:RDF>
      <cc:Work
         rdf:about="">
        <dc:format>image/svg+xml</dc:format>
        <dc:type
           rdf:resource="http://purl.org/dc/dcmitype/StillImage" />
        <dc:title></dc:title>
      </cc:Work>
    </rdf:RDF>
  </metadata>
  <path
     d="M 0.57228409,0 A 0.57232318,0.57221948 0 0 0 0,0.57218039 V 23.427819 A 0.57232318,0.57221948 0 0 0 0.57228409,24 H 23.427762 A 0.57232318,0.57221948 0 0 0 24,23.427819 V 0.57218039 A 0.57232318,0.57221948 0 0 0 23.427762,0 Z M 1.1445224,1.144315 H 22.855478 v 21.71137 H 1.1445224 Z M 19.425939,2.6599547 c -0.174023,0 -0.365824,0.024707 -0.575442,0.074137 -0.209618,0.049429 -0.435065,0.1226 -0.676323,0.2194816 V 3.558566 c 0.237303,-0.1324705 0.459802,-0.2313463 0.667443,-0.2965928 0.209618,-0.065247 0.408358,-0.097842 0.596223,-0.097842 0.264989,0 0.479552,0.074123 0.643688,0.2224103 0.166112,0.1482879 0.249135,0.3401004 0.249135,0.5753838 0,0.1443335 -0.03854,0.2916269 -0.115665,0.4418919 -0.07515,0.1482878 -0.208637,0.3301717 -0.400457,0.5456833 -0.100854,0.1146759 -0.34802,0.3707282 -0.741548,0.7681394 -0.391551,0.3954344 -0.701064,0.7107846 -0.92848,0.9460679 v 0.504176 h 2.812033 v -0.504176 h -2.091219 c 0.482517,-0.4923156 0.856281,-0.8748977 1.12127,-1.1477474 0.264989,-0.2748267 0.422194,-0.4408886 0.471632,-0.4982266 0.179955,-0.2214432 0.303561,-0.4132556 0.370797,-0.5753838 0.06921,-0.1641052 0.10381,-0.3371034 0.10381,-0.5190033 0,-0.3835712 -0.136437,-0.6900358 -0.409336,-0.9193876 C 20.2506,2.7746067 19.884726,2.6599547 19.425939,2.6599547 Z M 4.3049697,2.6777566 3.2459947,2.8912888 V 3.4369723 L 4.3108742,3.2234401 V 6.601469 H 3.3319998 V 7.1056449 H 5.883042 V 6.601469 H 4.9041674 V 2.6777566 Z m 0.060831,13.6791064 c -0.1760002,0 -0.3638572,0.01578 -0.5635875,0.04741 -0.1977529,0.03163 -0.4103218,0.0791 -0.6377377,0.14237 v 0.533831 c 0.2254385,-0.07513 0.4320672,-0.130486 0.6199326,-0.166076 0.1878652,-0.03559 0.3638878,-0.05336 0.5280226,-0.05336 0.3005846,0 0.5309278,0.06129 0.6911076,0.183877 0.1621573,0.120609 0.2432769,0.294604 0.2432769,0.521979 0,0.221442 -0.078127,0.391448 -0.2343514,0.510078 -0.1562249,0.116654 -0.3816713,0.175 -0.6763233,0.175 H 3.7962624 v 0.492323 h 0.5161679 c 0.3262925,0 0.5803959,0.07412 0.7623284,0.222411 0.1839102,0.146311 0.2758664,0.349955 0.2758664,0.610942 0,0.282735 -0.098894,0.498258 -0.2966468,0.646546 -0.1957752,0.148288 -0.4815282,0.22241 -0.857259,0.22241 -0.2155505,0 -0.4221794,-0.02471 -0.6199323,-0.07414 C 3.3790341,20.323034 3.1970715,20.24991 3.0309588,20.153029 v 0.578312 c 0.2096184,0.07315 0.4123482,0.127512 0.6081234,0.163102 0.1977532,0.03757 0.3895547,0.05633 0.5754424,0.05633 0.5537084,0 0.9808411,-0.119594 1.2814258,-0.358832 0.3005843,-0.239237 0.4508973,-0.577345 0.4508973,-1.0143 0,-0.284712 -0.081074,-0.523945 -0.2432309,-0.717709 C 5.5434367,18.66617 5.3199396,18.538642 5.0331979,18.47735 5.2922543,18.4121 5.4919912,18.295457 5.6323958,18.127397 5.7728003,17.95736 5.8430375,17.749771 5.8430373,17.504602 5.8430375,17.152665 5.7105447,16.873855 5.4455557,16.66823 5.1805667,16.460627 4.8206321,16.356855 4.3658007,16.356855 Z"
     style="font-style:normal;font-weight:normal;font-size:68.5867px;line-height:1.25;font-family:sans-serif;letter-spacing:0px;word-spacing:0px;fill:#000000;fill-opacity:1;stroke:none;stroke-width:0.151861"
     id="path838" />
</svg>
