<?xml version="1.0" encoding="UTF-8" standalone="no"?>
<svg
   xmlns:dc="http://purl.org/dc/elements/1.1/"
   xmlns:cc="http://creativecommons.org/ns#"
   xmlns:rdf="http://www.w3.org/1999/02/22-rdf-syntax-ns#"
   xmlns:svg="http://www.w3.org/2000/svg"
   xmlns="http://www.w3.org/2000/svg"
   xmlns:sodipodi="http://sodipodi.sourceforge.net/DTD/sodipodi-0.dtd"
   xmlns:inkscape="http://www.inkscape.org/namespaces/inkscape"
   width="24mm"
   height="24mm"
   viewBox="0 0 24 24"
   version="1.1"
   id="svg8"
   inkscape:version="1.0.1 (3bc2e813f5, 2020-09-07)"
   sodipodi:docname="Nonconsec_diag.svg">
  <defs
     id="defs2">
    <marker
       style="overflow:visible"
       id="Arrow1Lstart"
       refX="0.0"
       refY="0.0"
       orient="auto"
       inkscape:stockid="Arrow1Lstart"
       inkscape:isstock="true">
      <path
         transform="scale(0.8) translate(12.5,0)"
         style="fill-rule:evenodd;stroke:#000000;stroke-width:1pt;stroke-opacity:1;fill:#000000;fill-opacity:1"
         d="M 0.0,0.0 L 5.0,-5.0 L -12.5,0.0 L 5.0,5.0 L 0.0,0.0 z "
         id="path989" />
    </marker>
  </defs>
  <sodipodi:namedview
     id="base"
     pagecolor="#ffffff"
     bordercolor="#666666"
     borderopacity="1.0"
     inkscape:pageopacity="0.0"
     inkscape:pageshadow="2"
     inkscape:zoom="7.7500868"
     inkscape:cx="45.85097"
     inkscape:cy="45.692347"
     inkscape:document-units="mm"
     inkscape:current-layer="layer1"
     inkscape:document-rotation="0"
     showgrid="true"
     inkscape:window-width="1414"
     inkscape:window-height="967"
     inkscape:window-x="156"
     inkscape:window-y="4"
     inkscape:window-maximized="0"
     showguides="true"
     inkscape:guide-bbox="true">
    <inkscape:grid
       type="xygrid"
       id="grid859"
       units="mm"
       spacingx="0.99999997"
       spacingy="0.99999997" />
    <sodipodi:guide
       position="0.99999994,12"
       orientation="0,-1"
       id="guide861" />
    <sodipodi:guide
       position="11.999999,13"
       orientation="1,0"
       id="guide863" />
  </sodipodi:namedview>
  <metadata
     id="metadata5">
    <rdf:RDF>
      <cc:Work
         rdf:about="">
        <dc:format>image/svg+xml</dc:format>
        <dc:type
           rdf:resource="http://purl.org/dc/dcmitype/StillImage" />
        <dc:title></dc:title>
      </cc:Work>
    </rdf:RDF>
  </metadata>
  <g
     inkscape:label="Ebene 1"
     inkscape:groupmode="layer"
     id="layer1">
    <g
       aria-label="NC"
       id="text3369"
       style="font-style:normal;font-variant:normal;font-weight:bold;font-stretch:normal;font-size:8.46667px;line-height:1.25;font-family:'Microsoft YaHei';-inkscape-font-specification:'Microsoft YaHei Bold';stroke-width:0.264583" />
    <g
       aria-label="NC"
       id="text845"
       style="font-style:normal;font-variant:normal;font-weight:bold;font-stretch:normal;font-size:9.17222px;line-height:1.25;font-family:Arial;-inkscape-font-specification:'Arial Bold';stroke-width:0.264583">
      <path
         id="path854"
         style="font-style:normal;font-variant:normal;font-weight:bold;font-stretch:normal;font-size:9.17222px;font-family:Arial;-inkscape-font-specification:'Arial Bold';stroke-width:0.264583"
         d="m 16.763016,12.868853 1.285365,0.407555 q -0.295589,1.07487 -0.985297,1.598868 -0.68523,0.519521 -1.742185,0.519521 -1.307758,0 -2.149739,-0.891246 -0.841981,-0.895725 -0.841981,-2.445328 0,-1.639177 0.84646,-2.5438584 0.84646,-0.9091605 2.225875,-0.9091605 1.20475,0 1.957159,0.712101 0.447862,0.4209906 0.671793,1.2092279 l -1.312236,0.313504 q -0.116445,-0.510563 -0.48817,-0.806152 -0.367247,-0.2955893 -0.895725,-0.2955893 -0.730015,0 -1.186835,0.5239993 -0.452341,0.523999 -0.452341,1.697398 0,1.245057 0.447862,1.773535 0.447863,0.528477 1.164442,0.528477 0.528478,0 0.909161,-0.335897 0.380683,-0.335896 0.546392,-1.056955 z M 5.9516195,15.282831 V 8.7171696 H 7.241463 L 9.9286369,13.101742 V 8.7171696 H 11.160258 V 15.282831 H 9.8301072 L 7.1832409,11.001267 v 4.281564 z m -2.5294324,-1.314809 -1.2291508,0.306597 1.5067455,6.025599 6.0255991,1.506746 0.3065971,-1.229151 -5.2881092,-1.321682 z m 18.3847759,0.306597 -1.22915,-0.306597 -1.321682,5.288109 -5.288109,1.321682 0.306597,1.229151 6.025599,-1.506746 z M 20.300218,3.6997818 14.274619,2.1930366 l -0.306597,1.2291506 5.288109,1.3216819 1.321682,5.2881089 1.22915,-0.3065968 z M 9.725381,2.1930366 3.6997816,3.6997818 2.1930364,9.7253812 3.4221871,10.031978 4.7438689,4.7438691 10.031978,3.4221872 Z m 7.932854,4.1487282 c -3.121734,-3.1217345 -8.194736,-3.1217345 -11.3164704,0 -3.1217341,3.1217345 -3.1217343,8.1947362 0,11.3164702 3.1217344,3.121735 8.1947364,3.121735 11.3164704,0 3.121734,-3.121734 3.121734,-8.1947357 0,-11.3164702 z m -0.585573,0.5855728 c 2.804956,2.8049562 2.804957,7.3403684 0,10.1453244 -2.804956,2.804957 -7.3403684,2.804957 -10.1453246,0 -2.8049562,-2.804956 -2.804956,-7.3403682 0,-10.1453244 2.8049563,-2.8049564 7.3403686,-2.8049564 10.1453246,0 z M 12.523264,17.206329 c -0.348843,-14.7845945 -0.174421,-7.3922972 0,0 z" />
    </g>
  </g>
</svg>
